<?xml version="1.0" encoding="utf-8" standalone="no"?>
<!DOCTYPE svg PUBLIC "-//W3C//DTD SVG 1.1//EN"
  "http://www.w3.org/Graphics/SVG/1.1/DTD/svg11.dtd">
<svg xmlns:xlink="http://www.w3.org/1999/xlink" width="432pt" height="432pt" viewBox="0 0 432 432" xmlns="http://www.w3.org/2000/svg" version="1.1">
 <metadata>
  <rdf:RDF xmlns:dc="http://purl.org/dc/elements/1.1/" xmlns:cc="http://creativecommons.org/ns#" xmlns:rdf="http://www.w3.org/1999/02/22-rdf-syntax-ns#">
   <cc:Work>
    <dc:type rdf:resource="http://purl.org/dc/dcmitype/StillImage"/>
    <dc:date>2026-04-10T21:45:03.996100</dc:date>
    <dc:format>image/svg+xml</dc:format>
    <dc:creator>
     <cc:Agent>
      <dc:title>Matplotlib v3.10.7, https://matplotlib.org/</dc:title>
     </cc:Agent>
    </dc:creator>
   </cc:Work>
  </rdf:RDF>
 </metadata>
 <defs>
  <style type="text/css">*{stroke-linejoin: round; stroke-linecap: butt}</style>
 </defs>
 <g id="figure_1">
  <g id="patch_1">
   <path d="M 0 432 
L 432 432 
L 432 0 
L 0 0 
z
"/>
  </g>
  <g id="axes_1">
   <g id="LineCollection_1">
    <path d="M 2.52 0.36 
L 2.52 8.28 
L 1.8 9 
L 1.8 10.44 
L 2.52 11.16 
L 2.52 12.6 
L 1.8 13.32 
L 1.8 17.64 
L 2.52 18.36 
L 2.52 30.6 
L 3.24 31.32 
L 3.24 32.76 
L 7.56 37.08 
L 8.28 37.08 
L 9.72 38.52 
L 10.44 38.52 
L 11.16 39.24 
L 11.88 39.24 
L 12.6 39.96 
L 13.32 39.96 
L 14.04 40.68 
L 14.76 40.68 
L 15.48 41.4 
L 22.68 41.4 
L 23.4 42.12 
L 27 42.12 
L 27.72 41.4 
L 32.76 41.4 
L 33.48 40.68 
L 34.2 40.68 
L 34.92 39.96 
L 35.64 39.96 
L 36.36 39.24 
L 37.08 39.24 
L 39.24 37.08 
L 39.24 36.36 
L 39.96 35.64 
L 39.96 34.92 
L 40.68 34.2 
L 40.68 33.48 
L 41.4 32.76 
L 41.4 30.6 
L 42.12 29.88 
L 42.12 28.44 
L 42.84 27.72 
L 42.84 25.56 
L 43.56 24.84 
L 43.56 21.96 
L 44.28 21.24 
L 44.28 17.64 
L 45 16.92 
L 45 14.76 
L 46.44 14.76 
L 46.44 16.2 
L 47.16 16.92 
L 47.16 19.08 
L 47.88 19.8 
L 47.88 20.52 
L 48.6 21.24 
L 48.6 21.96 
L 49.32 22.68 
L 49.32 23.4 
L 50.04 24.12 
L 50.04 24.84 
L 55.8 30.6 
L 57.24 30.6 
L 57.96 31.32 
L 59.4 31.32 
L 60.12 32.04 
L 62.28 32.04 
L 63 32.76 
L 68.76 32.76 
L 69.48 33.48 
L 73.8 33.48 
L 74.52 32.76 
L 78.84 32.76 
L 79.56 32.04 
L 80.28 32.04 
L 84.6 27.72 
L 84.6 27 
L 86.04 25.56 
L 86.04 24.84 
L 86.76 24.12 
L 86.76 23.4 
L 87.48 22.68 
L 87.48 21.96 
L 88.2 21.24 
L 88.2 20.52 
L 88.92 19.8 
L 88.92 18.36 
L 89.64 17.64 
L 89.64 16.92 
L 90.36 16.2 
L 90.36 14.76 
L 91.08 14.04 
L 91.08 11.88 
L 91.8 11.16 
L 91.8 9.72 
L 93.24 8.28 
L 96.84 8.28 
L 97.56 9 
L 101.88 9 
L 102.6 8.28 
L 102.6 7.56 
L 103.32 6.84 
L 103.32 6.12 
L 104.04 5.4 
L 104.04 3.96 
L 104.76 3.24 
L 104.76 1.8 
L 105.48 1.08 
L 105.48 0.36 
L 105.48 0.36 
" clip-path="url(#pef7ee4652b)" style="fill: none; stroke: #1f77b4; stroke-width: 0.4"/>
    <path d="M 150.12 0.36 
L 150.12 1.08 
L 151.56 2.52 
L 151.56 3.24 
L 152.28 3.96 
L 152.28 4.68 
L 153.72 6.12 
L 153.72 6.84 
L 154.44 7.56 
L 154.44 8.28 
L 155.88 9.72 
L 155.88 10.44 
L 157.32 11.88 
L 157.32 12.6 
L 158.76 14.04 
L 158.76 14.76 
L 160.2 16.2 
L 160.2 16.92 
L 161.64 18.36 
L 161.64 19.08 
L 162.36 19.8 
L 162.36 20.52 
L 163.8 21.96 
L 163.8 22.68 
L 165.24 24.12 
L 165.24 24.84 
L 165.96 25.56 
L 165.96 26.28 
L 166.68 27 
L 166.68 27.72 
L 167.4 28.44 
L 167.4 29.16 
L 168.84 30.6 
L 168.84 31.32 
L 169.56 32.04 
L 169.56 32.76 
L 170.28 33.48 
L 170.28 34.92 
L 171 35.64 
L 171 36.36 
L 171.72 37.08 
L 171.72 37.8 
L 172.44 38.52 
L 172.44 39.96 
L 173.16 40.68 
L 173.16 41.4 
L 173.88 42.12 
L 173.88 43.56 
L 174.6 44.28 
L 174.6 45.72 
L 175.32 46.44 
L 175.32 47.88 
L 176.04 48.6 
L 176.04 50.04 
L 176.76 50.76 
L 176.76 52.2 
L 177.48 52.92 
L 177.48 68.04 
L 176.76 68.76 
L 176.76 73.8 
L 176.04 74.52 
L 176.04 84.6 
L 176.76 85.32 
L 176.76 86.04 
L 178.2 87.48 
L 178.2 88.2 
L 179.64 89.64 
L 179.64 93.96 
L 180.36 94.68 
L 180.36 109.8 
L 181.08 110.52 
L 181.08 144.36 
L 180.36 145.08 
L 180.36 155.16 
L 179.64 155.88 
L 179.64 164.52 
L 178.92 165.24 
L 178.92 169.56 
L 178.2 170.28 
L 178.2 172.44 
L 177.48 173.16 
L 177.48 175.32 
L 176.76 176.04 
L 176.76 177.48 
L 176.04 178.2 
L 176.04 179.64 
L 175.32 180.36 
L 175.32 181.8 
L 174.6 182.52 
L 174.6 183.96 
L 173.88 184.68 
L 173.88 186.12 
L 173.16 186.84 
L 173.16 187.56 
L 172.44 188.28 
L 172.44 189 
L 171.72 189.72 
L 171.72 190.44 
L 169.56 192.6 
L 169.56 193.32 
L 167.4 195.48 
L 167.4 197.64 
L 166.68 198.36 
L 166.68 212.76 
L 165.96 213.48 
L 165.24 213.48 
L 164.52 214.2 
L 162.36 214.2 
L 155.88 220.68 
L 155.88 221.4 
L 152.82 224.46 
L 152.82 224.46 
" clip-path="url(#pef7ee4652b)" style="fill: none; stroke: #ff7f0e; stroke-width: 0.4"/>
    <path d="M 163.8 0.36 
L 166.68 0.36 
L 167.4 1.08 
L 168.84 1.08 
L 169.56 1.8 
L 171 1.8 
L 171.72 2.52 
L 173.16 2.52 
L 173.88 3.24 
L 175.32 3.24 
L 176.04 3.96 
L 176.76 3.96 
L 177.48 4.68 
L 178.2 4.68 
L 178.92 5.4 
L 179.64 5.4 
L 181.08 6.84 
L 181.8 6.84 
L 182.52 7.56 
L 183.24 7.56 
L 183.96 8.28 
L 184.68 8.28 
L 186.12 9.72 
L 186.84 9.72 
L 187.56 10.44 
L 188.28 10.44 
L 194.04 16.2 
L 194.04 17.64 
L 194.76 18.36 
L 194.76 20.52 
L 195.48 21.24 
L 195.48 24.84 
L 196.2 25.56 
L 196.2 29.88 
L 196.92 30.6 
L 196.92 35.64 
L 197.64 36.36 
L 197.64 40.68 
L 198.36 41.4 
L 198.36 47.16 
L 199.08 47.88 
L 199.08 55.8 
L 199.8 56.52 
L 199.8 73.08 
L 200.52 73.8 
L 200.52 97.56 
L 199.8 98.28 
L 199.8 124.2 
L 199.08 124.92 
L 199.08 135.72 
L 198.36 136.44 
L 198.36 137.88 
L 197.64 138.6 
L 197.64 140.04 
L 196.92 140.76 
L 196.92 142.2 
L 196.2 142.92 
L 196.2 143.64 
L 195.48 144.36 
L 195.48 145.08 
L 194.76 145.8 
L 194.76 146.52 
L 194.04 147.24 
L 194.04 147.96 
L 193.32 148.68 
L 193.32 149.4 
L 192.6 150.12 
L 192.6 151.56 
L 191.88 152.28 
L 191.88 153.72 
L 191.16 154.44 
L 191.16 155.88 
L 190.44 156.6 
L 190.44 158.76 
L 189.72 159.48 
L 189.72 162.36 
L 189 163.08 
L 189 176.04 
L 189.72 176.76 
L 189.72 179.64 
L 189 180.36 
L 189 183.96 
L 188.28 184.68 
L 188.28 186.84 
L 187.56 187.56 
L 187.56 189.72 
L 186.84 190.44 
L 186.84 192.6 
L 186.12 193.32 
L 186.12 195.48 
L 185.4 196.2 
L 185.4 198.36 
L 184.68 199.08 
L 184.68 201.24 
L 183.96 201.96 
L 183.96 203.4 
L 183.24 204.12 
L 183.24 206.28 
L 182.52 207 
L 182.52 208.44 
L 181.8 209.16 
L 181.8 211.32 
L 181.08 212.04 
L 181.08 213.48 
L 180.36 214.2 
L 180.36 216.36 
L 179.64 217.08 
L 179.64 218.52 
L 178.92 219.24 
L 178.92 219.96 
L 178.2 220.68 
L 178.2 222.12 
L 177.48 222.84 
L 177.48 224.28 
L 176.76 225 
L 176.76 225.72 
L 176.04 226.44 
L 176.04 227.16 
L 175.32 227.88 
L 175.32 228.6 
L 174.6 229.32 
L 174.6 230.04 
L 173.88 230.76 
L 173.88 231.48 
L 173.16 232.2 
L 173.16 232.92 
L 172.44 233.64 
L 172.44 234.36 
L 171.72 235.08 
L 171.72 235.8 
L 171 236.52 
L 171 237.24 
L 169.56 238.68 
L 169.56 239.4 
L 168.84 240.12 
L 168.84 240.84 
L 167.4 242.28 
L 167.4 243 
L 166.68 243.72 
L 166.68 244.44 
L 164.52 246.6 
L 164.52 247.32 
L 160.92 250.92 
L 160.2 250.92 
L 158.76 252.36 
L 158.04 252.36 
L 156.6 253.8 
L 155.88 253.8 
L 155.16 254.52 
L 154.44 254.52 
L 153.72 255.24 
L 153 255.24 
L 152.28 255.96 
L 151.56 255.96 
L 150.84 256.68 
L 150.12 256.68 
L 149.4 257.4 
L 148.68 257.4 
L 147.96 258.12 
L 147.24 258.12 
L 146.52 258.84 
L 145.8 258.84 
L 145.08 259.56 
L 144.36 259.56 
L 143.64 260.28 
L 142.2 260.28 
L 141.48 261 
L 140.76 261 
L 140.04 261.72 
L 139.32 261.72 
L 138.6 262.44 
L 137.16 262.44 
L 136.44 263.16 
L 135.72 263.16 
L 135 263.88 
L 133.56 263.88 
L 132.84 264.6 
L 132.12 264.6 
L 131.4 265.32 
L 129.96 265.32 
L 129.24 266.04 
L 128.52 266.04 
L 127.8 266.76 
L 126.36 266.76 
L 125.64 267.48 
L 124.2 267.48 
L 123.48 268.2 
L 122.04 268.2 
L 121.32 268.92 
L 119.16 268.92 
L 118.44 269.64 
L 117 269.64 
L 116.28 270.36 
L 114.12 270.36 
L 113.4 271.08 
L 111.96 271.08 
L 111.24 271.8 
L 109.08 271.8 
L 108.36 272.52 
L 106.2 272.52 
L 105.48 273.24 
L 103.32 273.24 
L 102.6 273.96 
L 100.44 273.96 
L 100.44 273.96 
" clip-path="url(#pef7ee4652b)" style="fill: none; stroke: #2ca02c; stroke-width: 0.4"/>
    <path d="M 202.68 0.36 
L 202.68 9.72 
L 203.4 10.44 
L 203.4 11.16 
L 204.12 11.88 
L 204.12 12.6 
L 207.72 16.2 
L 207.72 16.92 
L 210.6 19.8 
L 210.6 21.24 
L 211.32 21.96 
L 211.32 32.04 
L 212.04 32.76 
L 212.04 44.28 
L 212.76 45 
L 212.76 47.88 
L 213.48 48.6 
L 213.48 50.04 
L 214.2 50.76 
L 214.2 52.2 
L 214.92 52.92 
L 214.92 53.64 
L 215.64 54.36 
L 215.64 55.08 
L 216.36 55.8 
L 216.36 56.52 
L 217.08 57.24 
L 217.08 59.4 
L 217.8 60.12 
L 217.8 72.36 
L 218.52 73.08 
L 218.52 85.32 
L 219.24 86.04 
L 219.24 122.04 
L 218.52 122.76 
L 218.52 132.84 
L 217.8 133.56 
L 217.8 142.92 
L 217.08 143.64 
L 217.08 153 
L 216.36 153.72 
L 216.36 160.92 
L 215.64 161.64 
L 215.64 167.4 
L 214.92 168.12 
L 214.92 172.44 
L 214.2 173.16 
L 214.2 176.04 
L 213.48 176.76 
L 213.48 179.64 
L 212.76 180.36 
L 212.76 182.52 
L 212.04 183.24 
L 212.04 184.68 
L 211.32 185.4 
L 211.32 187.56 
L 210.6 188.28 
L 210.6 189.72 
L 209.88 190.44 
L 209.88 192.6 
L 209.16 193.32 
L 209.16 194.76 
L 208.44 195.48 
L 208.44 196.92 
L 207.72 197.64 
L 207.72 198.36 
L 207 199.08 
L 207 199.8 
L 200.52 206.28 
L 199.8 206.28 
L 196.2 209.88 
L 196.2 210.6 
L 194.76 212.04 
L 194.76 213.48 
L 194.04 214.2 
L 194.04 221.4 
L 194.76 222.12 
L 194.76 225.72 
L 195.48 226.44 
L 195.48 230.76 
L 193.32 232.92 
L 193.32 233.64 
L 191.16 235.8 
L 190.44 235.8 
L 187.56 238.68 
L 186.84 238.68 
L 185.4 240.12 
L 184.68 240.12 
L 183.24 241.56 
L 182.52 241.56 
L 181.08 243 
L 180.36 243 
L 176.76 246.6 
L 176.04 246.6 
L 175.32 247.32 
L 175.32 248.04 
L 174.6 248.76 
L 174.6 252.36 
L 175.32 253.08 
L 175.32 258.12 
L 173.88 259.56 
L 173.88 260.28 
L 170.28 263.88 
L 169.56 263.88 
L 168.12 265.32 
L 167.4 265.32 
L 165.96 266.76 
L 165.24 266.76 
L 164.52 267.48 
L 163.8 267.48 
L 163.08 268.2 
L 161.64 268.2 
L 160.92 268.92 
L 157.32 268.92 
L 156.6 269.64 
L 147.24 269.64 
L 146.52 270.36 
L 145.08 270.36 
L 144.36 271.08 
L 143.64 271.08 
L 137.16 277.56 
L 137.16 278.28 
L 135 280.44 
L 135 281.16 
L 133.56 282.6 
L 133.56 283.32 
L 132.12 284.76 
L 132.12 285.48 
L 131.4 286.2 
L 131.4 286.92 
L 129.96 288.36 
L 129.96 289.08 
L 129.24 289.8 
L 129.24 290.52 
L 127.8 291.96 
L 127.8 292.68 
L 122.04 298.44 
L 121.32 298.44 
L 120.6 299.16 
L 119.16 299.16 
L 118.44 299.88 
L 105.48 299.88 
L 104.76 299.16 
L 99 299.16 
L 98.28 298.44 
L 96.84 298.44 
L 94.14 298.26 
L 94.14 298.26 
" clip-path="url(#pef7ee4652b)" style="fill: none; stroke: #d62728; stroke-width: 0.4"/>
    <path d="M 220.68 0.36 
L 220.68 7.56 
L 221.4 8.28 
L 221.4 9 
L 222.12 9.72 
L 222.12 10.44 
L 224.28 12.6 
L 225 12.6 
L 225.72 13.32 
L 226.44 13.32 
L 230.04 16.92 
L 230.04 24.84 
L 229.32 25.56 
L 229.32 27 
L 230.04 27.72 
L 230.04 29.88 
L 230.76 30.6 
L 230.76 32.04 
L 231.48 32.76 
L 231.48 33.48 
L 232.2 34.2 
L 232.2 34.92 
L 232.92 35.64 
L 232.92 36.36 
L 233.64 37.08 
L 233.64 37.8 
L 234.36 38.52 
L 234.36 42.84 
L 235.08 43.56 
L 235.08 54.36 
L 235.8 55.08 
L 235.8 70.2 
L 236.52 70.92 
L 236.52 104.76 
L 235.8 105.48 
L 235.8 116.28 
L 235.08 117 
L 235.08 124.92 
L 234.36 125.64 
L 234.36 128.52 
L 233.64 129.24 
L 233.64 129.96 
L 232.92 130.68 
L 232.92 131.4 
L 231.48 132.84 
L 231.48 133.56 
L 229.32 135.72 
L 229.32 136.44 
L 228.6 137.16 
L 228.6 137.88 
L 227.88 138.6 
L 227.88 139.32 
L 227.16 140.04 
L 227.16 140.76 
L 226.44 141.48 
L 226.44 143.64 
L 225.72 144.36 
L 225.72 165.24 
L 226.44 165.96 
L 226.44 181.08 
L 225.72 181.8 
L 225.72 186.84 
L 225 187.56 
L 225 189 
L 224.28 189.72 
L 224.28 190.44 
L 223.56 191.16 
L 223.56 191.88 
L 222.84 192.6 
L 222.84 193.32 
L 222.12 194.04 
L 222.12 194.76 
L 217.08 199.8 
L 217.08 200.52 
L 215.64 201.96 
L 215.64 202.68 
L 214.92 203.4 
L 214.92 204.84 
L 214.2 205.56 
L 214.2 207 
L 213.48 207.72 
L 213.48 209.16 
L 212.76 209.88 
L 212.76 211.32 
L 212.04 212.04 
L 212.04 213.48 
L 211.32 214.2 
L 211.32 216.36 
L 210.6 217.08 
L 210.6 219.96 
L 209.88 220.68 
L 209.88 222.84 
L 209.16 223.56 
L 209.16 225.72 
L 208.44 226.44 
L 208.44 227.88 
L 207.72 228.6 
L 207.72 230.04 
L 207 230.76 
L 207 232.2 
L 206.28 232.92 
L 206.28 233.64 
L 205.56 234.36 
L 205.56 235.8 
L 204.84 236.52 
L 204.84 237.24 
L 204.12 237.96 
L 204.12 238.68 
L 203.4 239.4 
L 203.4 240.12 
L 202.68 240.84 
L 202.68 241.56 
L 201.96 242.28 
L 201.96 243 
L 201.24 243.72 
L 201.24 244.44 
L 200.52 245.16 
L 200.52 245.88 
L 199.08 247.32 
L 199.08 248.04 
L 198.36 248.76 
L 198.36 249.48 
L 196.92 250.92 
L 196.92 251.64 
L 195.48 253.08 
L 195.48 253.8 
L 193.32 255.96 
L 193.32 256.68 
L 191.16 258.84 
L 191.16 259.56 
L 188.28 262.44 
L 188.28 263.16 
L 186.12 265.32 
L 186.12 266.04 
L 184.68 267.48 
L 184.68 268.2 
L 182.52 270.36 
L 182.52 271.08 
L 180.36 273.24 
L 180.36 273.96 
L 177.48 276.84 
L 177.48 277.56 
L 173.16 281.88 
L 172.44 281.88 
L 169.56 284.76 
L 168.84 284.76 
L 166.68 286.92 
L 165.96 286.92 
L 165.24 287.64 
L 164.52 287.64 
L 163.8 288.36 
L 163.08 288.36 
L 162.36 289.08 
L 161.64 289.08 
L 160.92 289.8 
L 159.48 289.8 
L 158.76 290.52 
L 158.04 290.52 
L 157.32 291.24 
L 156.6 291.24 
L 155.88 291.96 
L 155.16 291.96 
L 153.72 293.4 
L 153 293.4 
L 150.12 296.28 
L 149.4 296.28 
L 145.08 300.6 
L 145.08 301.32 
L 140.76 305.64 
L 140.76 306.36 
L 135.72 311.4 
L 135 311.4 
L 133.56 312.84 
L 132.84 312.84 
L 132.12 313.56 
L 131.4 313.56 
L 130.68 314.28 
L 129.24 314.28 
L 128.52 315 
L 124.92 315 
L 124.2 315.72 
L 113.4 315.72 
L 112.68 315 
L 106.92 315 
L 106.2 314.28 
L 102.6 314.28 
L 101.88 313.56 
L 99 313.56 
L 98.28 312.84 
L 97.56 312.84 
L 97.56 312.84 
" clip-path="url(#pef7ee4652b)" style="fill: none; stroke: #9467bd; stroke-width: 0.4"/>
    <path d="M 235.8 0.36 
L 235.8 1.08 
L 236.52 1.8 
L 236.52 2.52 
L 237.24 3.24 
L 237.24 4.68 
L 237.96 5.4 
L 237.96 7.56 
L 238.68 8.28 
L 238.68 10.44 
L 239.4 11.16 
L 239.4 13.32 
L 240.12 14.04 
L 240.12 16.92 
L 240.84 17.64 
L 240.84 19.8 
L 241.56 20.52 
L 241.56 23.4 
L 242.28 24.12 
L 242.28 27.72 
L 243 28.44 
L 243 32.76 
L 243.72 33.48 
L 243.72 42.84 
L 244.44 43.56 
L 244.44 69.48 
L 245.16 70.2 
L 245.16 150.84 
L 244.44 151.56 
L 244.44 163.8 
L 240.84 167.4 
L 240.84 179.64 
L 241.56 180.36 
L 241.56 186.84 
L 242.28 187.56 
L 242.28 201.96 
L 241.56 202.68 
L 241.56 204.84 
L 240.84 205.56 
L 240.84 207 
L 240.12 207.72 
L 240.12 208.44 
L 239.4 209.16 
L 239.4 209.88 
L 238.68 210.6 
L 238.68 211.32 
L 237.24 212.76 
L 237.24 213.48 
L 225 225.72 
L 225 226.44 
L 223.56 227.88 
L 223.56 228.6 
L 222.12 230.04 
L 222.12 230.76 
L 221.4 231.48 
L 221.4 232.2 
L 220.68 232.92 
L 220.68 233.64 
L 219.96 234.36 
L 219.96 235.8 
L 219.24 236.52 
L 219.24 241.56 
L 219.96 242.28 
L 219.96 248.04 
L 220.68 248.76 
L 220.68 251.64 
L 219.96 252.36 
L 219.96 253.8 
L 219.78 256.68 
L 219.78 256.68 
" clip-path="url(#pef7ee4652b)" style="fill: none; stroke: #8c564b; stroke-width: 0.4"/>
    <path d="M 258.12 1.08 
L 258.12 5.4 
L 258.84 6.12 
L 258.84 13.32 
L 259.56 14.04 
L 259.56 19.8 
L 260.28 20.52 
L 260.28 59.4 
L 261 60.12 
L 261 81 
L 261.72 81.72 
L 261.72 94.68 
L 262.44 95.4 
L 262.44 110.52 
L 263.16 111.24 
L 263.16 140.76 
L 262.44 141.48 
L 262.44 152.28 
L 261.72 153 
L 261.72 161.64 
L 261 162.36 
L 261 168.84 
L 260.28 169.56 
L 260.28 176.04 
L 259.56 176.76 
L 259.56 181.8 
L 258.84 182.52 
L 258.84 186.84 
L 258.12 187.56 
L 258.12 190.44 
L 257.4 191.16 
L 257.4 194.04 
L 256.68 194.76 
L 256.68 196.92 
L 255.96 197.64 
L 255.96 199.08 
L 255.24 199.8 
L 255.24 200.52 
L 254.52 201.24 
L 254.52 202.68 
L 253.8 203.4 
L 253.8 204.84 
L 253.08 205.56 
L 253.08 206.28 
L 252.36 207 
L 252.36 207.72 
L 251.64 208.44 
L 251.64 209.88 
L 250.92 210.6 
L 250.92 211.32 
L 250.2 212.04 
L 250.2 212.76 
L 249.48 213.48 
L 249.48 214.2 
L 248.76 214.92 
L 248.76 216.36 
L 248.04 217.08 
L 248.04 217.8 
L 247.32 218.52 
L 247.32 219.24 
L 246.6 219.96 
L 246.6 220.68 
L 245.88 221.4 
L 245.88 222.12 
L 245.16 222.84 
L 245.16 223.56 
L 244.44 224.28 
L 244.44 225.72 
L 243.72 226.44 
L 243.72 227.16 
L 243 227.88 
L 243 228.6 
L 242.28 229.32 
L 242.28 230.04 
L 241.56 230.76 
L 241.56 231.48 
L 240.84 232.2 
L 240.84 232.92 
L 240.12 233.64 
L 240.12 235.08 
L 238.68 236.52 
L 238.68 237.24 
L 237.96 237.96 
L 237.96 238.68 
L 236.52 240.12 
L 236.52 240.84 
L 234.36 243 
L 234.36 243.72 
L 230.04 248.04 
L 230.04 248.76 
L 226.44 252.36 
L 226.44 253.08 
L 224.28 255.24 
L 224.28 255.96 
L 223.56 256.68 
L 223.56 257.4 
L 222.12 258.84 
L 222.12 258.84 
" clip-path="url(#pef7ee4652b)" style="fill: none; stroke: #e377c2; stroke-width: 0.4"/>
    <path d="M 106.92 1.8 
L 113.4 1.8 
L 114.12 2.52 
L 117.72 2.52 
L 118.44 3.24 
L 120.6 3.24 
L 121.32 3.96 
L 122.76 3.96 
L 123.48 4.68 
L 124.2 4.68 
L 125.64 6.12 
L 126.36 6.12 
L 128.52 8.28 
L 129.24 8.28 
L 141.48 20.52 
L 141.48 21.24 
L 143.64 23.4 
L 143.64 24.12 
L 145.08 25.56 
L 145.08 26.28 
L 146.52 27.72 
L 146.52 28.44 
L 147.24 29.16 
L 147.24 29.88 
L 148.68 31.32 
L 148.68 32.04 
L 149.4 32.76 
L 149.4 33.48 
L 150.12 34.2 
L 150.12 34.92 
L 150.84 35.64 
L 150.84 37.08 
L 151.56 37.8 
L 151.56 38.52 
L 152.28 39.24 
L 152.28 39.96 
L 153 40.68 
L 153 42.12 
L 153.72 42.84 
L 153.72 43.56 
L 154.44 44.28 
L 154.44 45.72 
L 155.16 46.44 
L 155.16 47.16 
L 155.88 47.88 
L 155.88 48.6 
L 156.6 49.32 
L 156.6 50.76 
L 157.32 51.48 
L 157.32 52.2 
L 158.04 52.92 
L 158.04 53.64 
L 158.76 54.36 
L 158.76 55.08 
L 159.48 55.8 
L 159.48 56.52 
L 160.2 57.24 
L 160.2 58.68 
L 160.92 59.4 
L 160.92 63.72 
L 161.64 64.44 
L 161.64 72.36 
L 162.36 73.08 
L 162.36 83.88 
L 163.08 84.6 
L 163.08 124.92 
L 162.36 125.64 
L 162.36 139.32 
L 161.64 140.04 
L 161.64 152.28 
L 160.92 153 
L 160.92 159.48 
L 160.2 160.2 
L 160.2 163.08 
L 159.48 163.8 
L 159.48 165.96 
L 158.76 166.68 
L 158.76 168.12 
L 158.04 168.84 
L 158.04 169.56 
L 157.32 170.28 
L 157.32 171.72 
L 156.6 172.44 
L 156.6 173.16 
L 155.88 173.88 
L 155.88 175.32 
L 155.16 176.04 
L 155.16 176.76 
L 154.44 177.48 
L 154.44 178.92 
L 153.72 179.64 
L 153.72 180.36 
L 153 181.08 
L 153 181.8 
L 152.28 182.52 
L 152.28 183.96 
L 151.56 184.68 
L 151.56 185.4 
L 150.84 186.12 
L 150.84 187.56 
L 150.12 188.28 
L 150.12 189 
L 149.4 189.72 
L 149.4 190.44 
L 148.68 191.16 
L 148.68 192.6 
L 147.96 193.32 
L 147.96 194.04 
L 147.24 194.76 
L 147.24 195.48 
L 146.52 196.2 
L 146.52 197.64 
L 145.8 198.36 
L 145.8 199.08 
L 145.08 199.8 
L 145.08 200.52 
L 144.36 201.24 
L 144.36 201.96 
L 143.64 202.68 
L 143.64 204.12 
L 142.2 205.56 
L 142.2 206.28 
L 141.48 207 
L 141.48 207.72 
L 140.76 208.44 
L 140.76 209.16 
L 139.32 210.6 
L 139.32 211.32 
L 137.88 212.76 
L 137.88 213.48 
L 137.16 214.2 
L 137.16 214.92 
L 135.72 216.36 
L 135.72 217.08 
L 134.28 218.52 
L 134.28 219.24 
L 132.84 220.68 
L 132.84 221.4 
L 131.4 222.84 
L 131.4 223.56 
L 129.24 225.72 
L 129.24 226.44 
L 122.76 232.92 
L 122.04 232.92 
L 121.32 233.64 
L 120.6 233.64 
L 119.88 234.36 
L 119.16 234.36 
L 118.44 235.08 
L 117.72 235.08 
L 117 235.8 
L 116.28 235.8 
L 115.56 236.52 
L 114.12 236.52 
L 113.4 237.24 
L 111.96 237.24 
L 111.24 237.96 
L 109.8 237.96 
L 109.08 238.68 
L 106.92 238.68 
L 106.2 239.4 
L 102.6 239.4 
L 101.88 240.12 
L 96.12 240.12 
L 95.4 240.84 
L 87.48 240.84 
L 86.76 241.56 
L 83.88 241.56 
L 81.72 243.72 
L 81.72 243.72 
" clip-path="url(#pef7ee4652b)" style="fill: none; stroke: #7f7f7f; stroke-width: 0.4"/>
    <path d="M 0.36 215.64 
L 1.08 215.64 
L 1.8 215.64 
L 2.52 216.36 
L 3.24 216.36 
L 3.96 216.36 
L 4.68 216.36 
L 5.4 216.36 
L 6.12 216.36 
L 6.84 216.36 
L 9.54 216.54 
" clip-path="url(#pef7ee4652b)" style="fill: none; stroke: #bcbd22; stroke-width: 0.4"/>
    <path d="M 135.72 228.6 
L 136.44 228.6 
L 137.16 228.6 
L 137.88 228.6 
L 138.6 228.6 
L 139.32 228.6 
L 140.04 228.6 
L 140.76 228.6 
L 141.48 228.6 
L 142.2 228.6 
L 142.92 228.6 
L 143.64 228.6 
L 144.36 227.88 
L 145.08 227.88 
L 145.8 227.88 
L 146.52 227.88 
L 147.24 227.88 
L 147.96 227.16 
L 148.68 227.16 
L 152.82 224.46 
" clip-path="url(#pef7ee4652b)" style="fill: none; stroke: #17becf; stroke-width: 0.4"/>
    <path d="M 10.44 230.04 
L 10.44 229.32 
L 10.44 228.6 
L 10.44 227.88 
L 10.44 227.16 
L 10.44 226.44 
L 9.72 225.72 
L 9.72 225 
L 9.72 224.28 
L 9.72 223.56 
L 9.72 222.84 
L 9.72 222.12 
L 9.72 221.4 
L 9.72 220.68 
L 9.72 219.96 
L 9.54 216.54 
" clip-path="url(#pef7ee4652b)" style="fill: none; stroke: #1f77b4; stroke-width: 0.4"/>
    <path d="M 81.72 243.72 
L 78.12 243.72 
L 77.4 244.44 
L 73.8 244.44 
L 73.08 245.16 
L 71.64 245.16 
L 68.76 242.28 
L 68.76 241.56 
L 68.04 240.84 
L 68.04 239.4 
L 67.32 238.68 
L 67.32 237.24 
L 66.6 236.52 
L 66.6 234.36 
L 65.88 233.64 
L 65.88 232.2 
L 65.16 231.48 
L 65.16 229.32 
L 64.44 228.6 
L 64.44 226.44 
L 63.72 225.72 
L 63.72 223.56 
L 63 222.84 
L 63 220.68 
L 62.28 219.96 
L 62.28 217.8 
L 61.56 217.08 
L 61.56 214.92 
L 60.84 214.2 
L 60.84 212.04 
L 60.12 211.32 
L 60.12 209.16 
L 59.4 208.44 
L 59.4 206.28 
L 58.68 205.56 
L 58.68 204.12 
L 57.96 203.4 
L 57.96 201.96 
L 57.24 201.24 
L 57.24 199.8 
L 56.52 199.08 
L 56.52 198.36 
L 55.8 197.64 
L 55.8 196.92 
L 54.36 195.48 
L 46.44 195.48 
L 45.72 196.2 
L 42.12 196.2 
L 41.4 196.92 
L 38.52 196.92 
L 37.8 197.64 
L 34.92 197.64 
L 34.2 198.36 
L 32.04 198.36 
L 31.32 199.08 
L 29.16 199.08 
L 28.44 199.8 
L 27 199.8 
L 26.28 200.52 
L 25.56 200.52 
L 24.84 201.24 
L 23.4 201.24 
L 22.68 201.96 
L 21.96 201.96 
L 21.24 202.68 
L 20.52 202.68 
L 19.08 204.12 
L 18.36 204.12 
L 13.32 209.16 
L 13.32 209.88 
L 11.88 211.32 
L 11.88 212.04 
L 11.16 212.76 
L 11.16 214.2 
L 10.44 214.92 
L 9.54 216.54 
L 9.54 216.54 
" clip-path="url(#pef7ee4652b)" style="fill: none; stroke: #ff7f0e; stroke-width: 0.4"/>
    <path d="M 81.72 243.72 
L 82.44 243.72 
L 83.16 243.72 
L 83.88 243.72 
L 84.6 243.72 
L 85.32 243.72 
L 86.04 243.72 
L 86.76 243.72 
L 87.48 243.72 
L 88.2 244.44 
L 88.92 244.44 
L 89.64 244.44 
L 90.36 244.44 
L 91.08 245.16 
L 91.8 245.16 
L 92.52 245.88 
L 93.24 246.6 
L 93.96 247.32 
L 94.68 248.04 
L 94.68 248.76 
L 94.68 249.48 
L 94.68 250.2 
L 94.68 250.92 
L 95.4 251.64 
L 95.4 252.36 
L 95.4 253.08 
L 95.4 253.8 
L 95.4 254.52 
L 95.4 255.24 
L 95.4 255.96 
L 95.4 256.68 
L 95.4 257.4 
L 95.4 258.12 
L 95.4 258.84 
L 95.4 259.56 
L 95.4 260.28 
L 95.4 261 
L 95.4 261.72 
L 95.4 262.44 
L 95.4 263.16 
L 95.4 263.88 
L 95.4 264.6 
L 95.4 265.32 
L 95.4 266.04 
L 95.4 266.76 
L 95.4 267.48 
L 95.4 268.2 
L 95.4 268.92 
L 95.4 269.64 
L 95.4 270.36 
L 95.4 271.08 
L 95.4 271.8 
L 95.4 272.52 
L 95.4 273.24 
L 95.4 273.96 
L 95.4 274.68 
L 95.4 275.4 
L 95.4 276.12 
L 95.4 276.84 
L 95.4 277.56 
L 95.4 278.28 
L 95.4 279 
L 95.4 279.72 
L 94.68 280.44 
L 94.68 281.16 
L 94.68 281.88 
L 94.68 282.6 
L 94.68 283.32 
L 94.68 284.04 
L 94.68 284.76 
L 94.68 285.48 
L 94.68 286.2 
L 94.68 286.92 
L 94.68 287.64 
L 94.68 288.36 
L 94.68 289.08 
L 94.68 289.8 
L 94.68 290.52 
L 93.96 291.24 
L 93.96 291.96 
L 94.14 298.26 
" clip-path="url(#pef7ee4652b)" style="fill: none; stroke: #2ca02c; stroke-width: 0.4"/>
    <path d="M 99.72 256.68 
L 100.44 256.68 
L 101.16 255.96 
L 101.88 255.96 
L 102.6 255.96 
L 103.32 255.96 
L 104.04 255.24 
L 104.76 255.24 
L 105.48 254.52 
L 106.2 254.52 
L 106.92 254.52 
L 107.64 253.8 
L 108.36 253.8 
L 109.08 253.8 
L 109.8 253.08 
L 110.52 253.08 
L 111.24 253.08 
L 111.96 252.36 
L 112.68 252.36 
L 113.4 251.64 
L 114.12 251.64 
L 114.84 251.64 
L 115.56 250.92 
L 116.28 250.92 
L 117 250.2 
L 117.72 250.2 
L 118.44 250.2 
L 119.16 249.48 
L 119.88 249.48 
L 120.6 248.76 
L 121.32 248.76 
L 122.04 248.76 
L 122.76 248.04 
L 123.48 248.04 
L 124.2 247.32 
L 124.92 247.32 
L 125.64 247.32 
L 126.36 246.6 
L 127.08 246.6 
L 127.8 245.88 
L 128.52 245.88 
L 129.24 245.16 
L 129.96 245.16 
L 130.68 244.44 
L 131.4 244.44 
L 132.12 244.44 
L 132.84 243.72 
L 133.56 243.72 
L 134.28 243 
L 135 243 
L 135.72 243 
L 136.44 242.28 
L 137.16 242.28 
L 137.88 241.56 
L 138.6 241.56 
L 139.32 240.84 
L 140.04 240.84 
L 140.76 240.12 
L 141.48 240.12 
L 142.2 240.12 
L 142.92 239.4 
L 143.64 239.4 
L 144.36 238.68 
L 145.08 238.68 
L 145.8 237.96 
L 146.52 237.96 
L 147.24 237.24 
L 147.96 236.52 
L 148.68 236.52 
L 149.4 235.8 
L 150.12 235.08 
L 150.84 234.36 
L 151.56 233.64 
L 151.56 232.92 
L 152.28 232.2 
L 153 231.48 
L 153 230.76 
L 153 230.04 
L 153 229.32 
L 153 228.6 
L 153 227.88 
L 152.82 224.46 
" clip-path="url(#pef7ee4652b)" style="fill: none; stroke: #d62728; stroke-width: 0.4"/>
    <path d="M 222.12 258.84 
L 221.4 258.12 
L 219.78 256.68 
" clip-path="url(#pef7ee4652b)" style="fill: none; stroke: #9467bd; stroke-width: 0.4"/>
    <path d="M 222.12 258.84 
L 222.12 259.56 
L 221.4 260.28 
L 221.4 261 
L 220.68 261.72 
L 220.68 262.44 
L 219.96 263.16 
L 219.96 264.6 
L 219.24 265.32 
L 219.24 266.04 
L 218.52 266.76 
L 218.52 268.2 
L 217.8 268.92 
L 217.8 271.08 
L 217.08 271.8 
L 217.08 273.96 
L 216.36 274.68 
L 216.36 276.12 
L 215.64 276.84 
L 215.64 279 
L 214.92 279.72 
L 214.92 281.88 
L 214.2 282.6 
L 214.2 283.32 
L 212.76 284.76 
L 212.76 285.48 
L 211.32 286.92 
L 211.32 287.64 
L 209.16 289.8 
L 209.16 290.52 
L 207 292.68 
L 207 293.4 
L 203.4 297 
L 203.4 297.72 
L 189 312.12 
L 188.28 312.12 
L 185.4 315 
L 184.68 315 
L 183.24 316.44 
L 182.52 316.44 
L 181.08 317.88 
L 180.36 317.88 
L 178.92 319.32 
L 178.2 319.32 
L 176.76 320.76 
L 176.04 320.76 
L 174.6 322.2 
L 173.88 322.2 
L 172.44 323.64 
L 171.72 323.64 
L 170.28 325.08 
L 169.56 325.08 
L 168.84 325.8 
L 168.12 325.8 
L 167.4 326.52 
L 166.68 326.52 
L 165.96 327.24 
L 164.52 327.24 
L 163.8 327.96 
L 161.64 327.96 
L 160.92 328.68 
L 156.6 328.68 
L 155.88 329.4 
L 152.28 329.4 
L 151.56 330.12 
L 148.68 330.12 
L 147.96 330.84 
L 146.52 330.84 
L 145.8 331.56 
L 144.36 331.56 
L 143.64 332.28 
L 142.92 332.28 
L 142.2 333 
L 141.48 333 
L 140.76 333.72 
L 140.04 333.72 
L 139.32 334.44 
L 138.6 334.44 
L 137.88 335.16 
L 137.16 335.16 
L 136.44 335.88 
L 135.72 335.88 
L 132.12 339.48 
L 131.4 339.48 
L 128.52 342.36 
L 127.8 342.36 
L 126.36 343.8 
L 125.64 343.8 
L 124.92 344.52 
L 122.76 344.52 
L 122.04 345.24 
L 117.72 345.24 
L 117 345.96 
L 110.52 345.96 
L 109.8 345.24 
L 102.6 345.24 
L 101.88 344.52 
L 96.84 344.52 
L 96.12 343.8 
L 94.68 343.8 
L 93.96 343.08 
L 93.96 343.08 
" clip-path="url(#pef7ee4652b)" style="fill: none; stroke: #8c564b; stroke-width: 0.4"/>
    <path d="M 73.8 280.44 
L 74.52 280.44 
L 75.24 281.16 
L 75.96 281.16 
L 76.68 281.88 
L 77.4 281.88 
L 78.12 282.6 
L 78.84 282.6 
L 79.56 283.32 
L 80.28 283.32 
L 81 284.04 
L 81.72 284.76 
L 82.44 284.76 
L 83.16 285.48 
L 83.88 286.2 
L 84.6 286.2 
L 85.32 286.92 
L 86.04 287.64 
L 86.76 287.64 
L 87.48 288.36 
L 88.2 289.08 
L 88.92 289.8 
L 89.64 290.52 
L 90.36 291.24 
L 91.08 291.96 
L 94.14 298.26 
" clip-path="url(#pef7ee4652b)" style="fill: none; stroke: #e377c2; stroke-width: 0.4"/>
    <path d="M 0.36 397.8 
L 1.08 397.8 
L 2.52 399.24 
L 3.24 399.24 
L 3.96 399.96 
L 4.68 399.96 
L 5.4 400.68 
L 6.12 400.68 
L 6.84 401.4 
L 8.28 401.4 
L 9 402.12 
L 11.16 402.12 
L 11.88 402.84 
L 22.68 402.84 
L 23.4 402.12 
L 24.12 402.12 
L 24.84 401.4 
L 24.84 400.68 
L 26.28 399.24 
L 26.28 398.52 
L 27 397.8 
L 27 397.08 
L 27.72 396.36 
L 27.72 395.64 
L 28.44 394.92 
L 28.44 392.76 
L 29.16 392.04 
L 29.16 391.32 
L 29.88 390.6 
L 31.32 392.04 
L 31.32 393.48 
L 32.04 394.2 
L 32.04 394.92 
L 33.48 396.36 
L 33.48 397.08 
L 34.2 397.8 
L 34.2 398.52 
L 35.64 399.96 
L 35.64 400.68 
L 39.96 405 
L 40.68 405 
L 41.4 405.72 
L 43.56 405.72 
L 44.28 406.44 
L 60.12 406.44 
L 60.84 405.72 
L 64.44 405.72 
L 65.16 405 
L 65.88 405 
L 66.6 404.28 
L 67.32 404.28 
L 68.04 403.56 
L 68.04 402.84 
L 70.2 400.68 
L 70.2 399.96 
L 70.92 399.24 
L 70.92 398.52 
L 72.36 397.08 
L 72.36 396.36 
L 73.08 395.64 
L 73.08 394.92 
L 73.8 394.2 
L 73.8 392.76 
L 74.52 392.04 
L 74.52 391.32 
L 75.24 390.6 
L 75.24 388.44 
L 75.96 387.72 
L 75.96 384.84 
L 76.68 384.12 
L 76.68 376.92 
L 77.4 376.2 
L 77.4 366.12 
L 76.68 365.4 
L 76.68 363.24 
L 78.12 361.8 
L 84.6 361.8 
L 85.32 361.08 
L 85.32 360.36 
L 86.76 358.92 
L 86.76 358.2 
L 87.48 357.48 
L 87.48 356.76 
L 88.2 356.04 
L 88.2 355.32 
L 88.92 354.6 
L 88.92 353.16 
L 89.64 352.44 
L 89.64 351 
L 90.36 350.28 
L 90.36 349.56 
L 91.08 348.84 
L 91.08 346.68 
L 91.8 345.96 
L 91.8 343.8 
L 92.52 343.08 
L 92.52 340.92 
L 93.24 340.2 
L 93.24 338.04 
L 93.96 337.32 
L 93.96 333.72 
L 94.68 333 
L 94.5 329.94 
L 94.5 329.94 
" clip-path="url(#pef7ee4652b)" style="fill: none; stroke: #7f7f7f; stroke-width: 0.4"/>
    <path d="M 219.78 256.68 
L 217.08 258.12 
L 216.36 258.84 
L 215.64 258.84 
L 214.92 259.56 
L 212.04 259.56 
L 211.32 260.28 
L 209.16 260.28 
L 208.44 261 
L 207 261 
L 206.28 261.72 
L 205.56 261.72 
L 204.84 262.44 
L 204.12 262.44 
L 203.4 263.16 
L 202.68 263.16 
L 201.96 263.88 
L 201.24 263.88 
L 200.52 264.6 
L 199.8 264.6 
L 196.2 268.2 
L 196.2 268.92 
L 195.48 269.64 
L 195.48 270.36 
L 194.76 271.08 
L 194.76 273.24 
L 194.04 273.96 
L 194.04 280.44 
L 193.32 281.16 
L 193.32 285.48 
L 192.6 286.2 
L 192.6 286.92 
L 189 290.52 
L 187.56 290.52 
L 186.84 291.24 
L 186.12 291.24 
L 185.4 291.96 
L 184.68 291.96 
L 181.8 294.84 
L 181.8 296.28 
L 181.08 297 
L 179.64 297 
L 178.92 297.72 
L 178.92 298.44 
L 178.2 299.16 
L 178.2 302.04 
L 177.48 302.76 
L 177.48 303.48 
L 176.76 304.2 
L 176.04 304.2 
L 175.32 304.92 
L 173.88 304.92 
L 173.16 305.64 
L 171 305.64 
L 170.28 306.36 
L 168.84 306.36 
L 168.12 307.08 
L 166.68 307.08 
L 165.96 307.8 
L 165.24 307.8 
L 154.44 318.6 
L 153.72 318.6 
L 152.28 320.04 
L 151.56 320.04 
L 150.84 320.76 
L 150.12 320.76 
L 149.4 321.48 
L 148.68 321.48 
L 147.96 322.2 
L 146.52 322.2 
L 145.8 322.92 
L 145.08 322.92 
L 144.36 323.64 
L 142.92 323.64 
L 142.2 324.36 
L 141.48 324.36 
L 140.76 325.08 
L 139.32 325.08 
L 138.6 325.8 
L 137.16 325.8 
L 136.44 326.52 
L 134.28 326.52 
L 133.56 327.24 
L 130.68 327.24 
L 129.96 327.96 
L 126.36 327.96 
L 125.64 328.68 
L 122.76 328.68 
L 122.04 329.4 
L 118.44 329.4 
L 117.72 330.12 
L 97.56 330.12 
L 94.5 329.94 
L 94.5 329.94 
" clip-path="url(#pef7ee4652b)" style="fill: none; stroke: #bcbd22; stroke-width: 0.4"/>
    <path d="M 94.14 298.26 
L 94.68 301.32 
L 94.68 302.04 
L 94.68 302.76 
L 94.68 303.48 
L 94.68 304.2 
L 94.68 304.92 
L 95.4 305.64 
L 95.4 306.36 
L 95.4 307.08 
L 95.4 307.8 
L 95.4 308.52 
L 95.4 309.24 
L 95.4 309.96 
L 95.4 310.68 
L 95.4 311.4 
L 95.4 312.12 
L 95.4 312.84 
L 95.4 313.56 
L 95.4 314.28 
L 95.4 315 
L 95.4 315.72 
L 95.4 316.44 
L 95.4 317.16 
L 95.4 317.88 
L 95.4 318.6 
L 95.4 319.32 
L 95.4 320.04 
L 95.4 320.76 
L 95.4 321.48 
L 95.4 322.2 
L 95.4 322.92 
L 95.4 323.64 
L 95.4 324.36 
L 95.4 325.08 
L 95.4 325.8 
L 94.68 326.52 
L 94.68 327.24 
L 94.5 329.94 
" clip-path="url(#pef7ee4652b)" style="fill: none; stroke: #17becf; stroke-width: 0.4"/>
   </g>
  </g>
 </g>
 <defs>
  <clipPath id="pef7ee4652b">
   <rect x="0" y="0" width="432" height="432"/>
  </clipPath>
 </defs>
</svg>
